<svg xmlns="http://www.w3.org/2000/svg" viewBox="0 0 512 512" width="64" height="64">
  <rect width="512" height="512" rx="112" fill="#09090b"/>
  <g transform="translate(87.04,147.866) scale(0.67584)">
    <g transform="translate(0.000000,320.000000) scale(0.100000,-0.100000)"
fill="#ffffff" stroke="none">
<path d="M3520 3194 c-14 -3 -65 -12 -115 -20 -182 -30 -422 -127 -582 -236
-330 -222 -583 -568 -678 -928 -15 -58 -33 -126 -40 -152 l-13 -47 122 -117
c66 -64 242 -237 390 -383 148 -146 265 -257 261 -246 -85 223 -110 363 -102
549 12 257 96 461 265 637 130 137 284 227 467 275 84 22 122 26 240 26 149 1
211 -10 347 -57 124 -43 271 -139 373 -244 27 -28 53 -51 57 -51 14 0 458 432
458 445 0 7 -48 59 -108 116 -166 161 -355 278 -573 354 -171 61 -273 76 -524
80 -121 2 -231 1 -245 -1z"/>
<path d="M0 1575 l0 -1565 326 0 325 0 -3 1125 -3 1124 1126 -1124 1125 -1125
435 -2 c512 -3 601 -1 694 13 235 35 471 137 685 298 90 67 290 262 290 283 0
8 -51 55 -112 104 -62 49 -163 133 -225 187 -62 53 -116 97 -121 97 -4 0 -32
-25 -62 -56 -164 -167 -382 -280 -618 -320 -119 -21 -315 -14 -442 15 -168 38
-351 132 -498 256 -75 63 -1037 1022 -1979 1973 l-280 282 -332 0 -331 0 0
-1565z"/>
</g>
  </g>
</svg>
